<?xml version="1.0" standalone="no"?><!DOCTYPE svg PUBLIC "-//W3C//DTD SVG 1.1//EN" "http://www.w3.org/Graphics/SVG/1.1/DTD/svg11.dtd"><svg t="1781805272024" class="icon" viewBox="0 0 1024 1024" version="1.1" xmlns="http://www.w3.org/2000/svg" p-id="29468" xmlns:xlink="http://www.w3.org/1999/xlink" width="200" height="200"><path d="M902.72 576a49.344 49.344 0 0 0-46.72 36.608 358.4 358.4 0 0 1-688 0A49.344 49.344 0 0 0 121.28 576c-27.776 0-49.152 25.28-41.984 52.16a448.064 448.064 0 0 0 865.408 0c7.232-26.88-14.144-52.16-41.984-52.16m0-128a49.344 49.344 0 0 1-46.72-36.608 358.4 358.4 0 0 0-688 0 49.344 49.344 0 0 1-46.72 36.608c-27.776 0-49.152-25.28-41.984-52.16a448 448 0 0 1 865.408 0c7.232 26.88-14.144 52.16-41.984 52.16" fill="#7D858F" p-id="29469"></path><path d="M52.864 600L6.4 773.12q-1.152 4.224-1.408 8.64-0.32 4.48 0.256 8.768 0.64 4.416 2.048 8.576t3.584 8q2.24 3.84 5.12 7.168 2.944 3.264 6.4 5.952 3.52 2.688 7.488 4.672 3.968 1.92 8.192 3.072 4.288 1.152 8.704 1.472 4.352 0.256 8.768-0.32 4.352-0.576 8.512-1.984 4.224-1.408 8-3.648 3.84-2.176 7.168-5.12 3.328-2.88 6.016-6.4 2.688-3.52 4.608-7.424 1.92-3.968 3.136-8.256l38.08-142.144 142.144 38.08q4.288 1.152 8.704 1.408 4.416 0.32 8.768-0.256 4.352-0.64 8.576-1.984 4.16-1.472 8-3.648 3.84-2.24 7.104-5.12 3.328-2.88 6.016-6.4 2.688-3.52 4.608-7.488 1.92-3.904 3.136-8.192 1.152-4.288 1.408-8.64 0.32-4.48-0.256-8.832-0.64-4.352-2.048-8.512-1.408-4.224-3.584-8-2.24-3.84-5.12-7.168-2.944-3.328-6.4-6.016-3.52-2.688-7.488-4.608-3.968-1.92-8.192-3.072l-173.12-46.4q-23.04-6.208-43.712 5.76-20.672 11.904-26.88 34.944zM973.12 421.632l46.4-173.12q1.152-4.224 1.472-8.64 0.256-4.416-0.32-8.768-0.576-4.352-1.984-8.576-1.408-4.16-3.648-8-2.176-3.84-5.12-7.104-2.88-3.328-6.4-6.016-3.52-2.688-7.424-4.672-3.968-1.92-8.256-3.072-4.224-1.152-8.64-1.408-4.416-0.32-8.768 0.256-4.416 0.64-8.576 1.984-4.16 1.472-8 3.648t-7.168 5.12q-3.264 2.88-5.952 6.4-2.688 3.52-4.672 7.488-1.92 3.904-3.072 8.192l-38.08 142.208-142.208-38.144q-4.288-1.088-8.64-1.408-4.48-0.256-8.832 0.32-4.352 0.576-8.512 1.92-4.224 1.472-8 3.648-3.84 2.24-7.168 5.12-3.328 2.944-6.016 6.4-2.688 3.52-4.608 7.488-1.92 3.968-3.072 8.192-1.152 4.288-1.472 8.704-0.256 4.416 0.32 8.768 0.576 4.352 1.92 8.576 1.472 4.16 3.712 8 2.176 3.84 5.12 7.104 2.88 3.328 6.4 6.016 3.456 2.688 7.424 4.608 3.968 1.92 8.256 3.136l173.056 46.336q23.04 6.208 43.712-5.76 20.672-11.904 26.88-34.944z" fill="#7D858F" p-id="29470"></path></svg>