<?xml version="1.0" standalone="no"?><!DOCTYPE svg PUBLIC "-//W3C//DTD SVG 1.1//EN" "http://www.w3.org/Graphics/SVG/1.1/DTD/svg11.dtd"><svg t="1781806161197" class="icon" viewBox="0 0 1024 1024" version="1.1" xmlns="http://www.w3.org/2000/svg" p-id="57735" xmlns:xlink="http://www.w3.org/1999/xlink" width="48" height="48"><path d="M204.8 192c-35.328 0-64 28.672-64 64v512c0 35.328 28.672 64 64 64h614.4c35.328 0 64-28.672 64-64V358.4h76.8v409.6A140.8 140.8 0 0 1 819.2 908.8H204.8A140.8 140.8 0 0 1 64 768V256A140.8 140.8 0 0 1 204.8 115.2h512v76.8H204.8z" fill="#999999" p-id="57736"></path><path d="M907.9296 231.936L487.936 651.9296l-54.272-54.272 419.9424-419.9936 54.272 54.272z" fill="#999999" p-id="57737"></path></svg>