<?xml version="1.0" standalone="no"?><!DOCTYPE svg PUBLIC "-//W3C//DTD SVG 1.1//EN" "http://www.w3.org/Graphics/SVG/1.1/DTD/svg11.dtd"><svg t="1782549995004" class="icon" viewBox="0 0 1024 1024" version="1.1" xmlns="http://www.w3.org/2000/svg" p-id="3055" xmlns:xlink="http://www.w3.org/1999/xlink" width="200" height="200"><path d="M90.53184 316.0064v0.02048c7.09632-30.72 20.7872-57.25184 40.7552-78.848 21.31968-23.07072 49.50016-38.4 80.47616-49.74592 4.75136-1.37216 5.2736-1.49504 10.1376-2.8672 54.6304-15.29856 124.5184 32.2048 164.87424 117.88288 21.98528 46.70464 29.73696 94.5152 21.27872 131.18464-6.2976 27.24864-21.38112 47.0016-42.74176 56.14592-2.52928 2.42688-6.08256 6.63552-6.98368 10.5472-0.256 1.1264-0.79872 3.46112 2.3552 7.87456l0.57344 0.84992a736.52224 736.52224 0 0 0 71.80288 75.68384 741.94944 741.94944 0 0 0 74.76224 60.13952c8.64256 3.67616 13.4144 3.51232 14.90944 2.7648 1.0752-0.512 2.18112-2.58048 2.18112-2.60096 5.08928-19.8656 18.19648-35.65568 37.9904-46.03904 37.29408-19.5584 94.60736-18.28864 153.33376 3.3792 90.03008 33.2288 148.23424 100.2496 135.38304 155.91424l-0.37888 1.57696a59.4944 59.4944 0 0 1-2.5088 7.59808c-6.35904 34.5088-20.736 64.29696-42.63936 88.0128-101.4272 109.76256-329.08288 60.0064-518.27712-113.2544C141.824 608.512 62.54592 437.22752 90.53184 316.0064z m271.42144 106.98752c6.0416-26.13248-0.68608-63.66208-17.98144-100.39296-30.14656-64.04096-80.71168-100.89472-106.46528-93.96224-3.9424 1.06496-6.4512 1.86368-8.46848 2.48832-23.87968 7.30112-47.23712 21.0944-63.01696 38.15424-14.30528 15.47264-24.17664 34.77504-29.3888 57.37472-23.90016 103.49568 51.4048 260.02432 183.1424 380.68224 164.06528 150.24128 370.86208 203.38688 451.584 116.02944 16.1792-17.53088 26.75712-40.17152 31.21152-66.56a24.6784 24.6784 0 0 1 1.6896-5.61152c0.45056-0.99328 0.88064-2.01728 1.16736-3.10272 6.31808-27.37152-37.55008-76.22656-105.5744-101.3248-44.97408-16.59904-90.112-18.91328-114.96448-5.87776-11.64288 6.11328-13.44512 13.16864-14.0288 15.47264-0.47104 2.00704-6.12352 23.42912-27.392 33.81248-16.22016 7.91552-35.4816 6.8608-57.20064-3.11296a23.9616 23.9616 0 0 1-3.67616-2.0992A793.41568 793.41568 0 0 1 322.8672 536.82176a23.6032 23.6032 0 0 1-2.70336-4.10624c-8.59136-13.4656-11.33568-28.27264-7.92576-43.03872 5.39648-23.3984 24.73984-38.05184 26.9312-39.64928 1.8944-1.3824 3.9936-2.47808 6.22592-3.24608 9.95328-3.42016 14.4896-14.82752 16.55808-23.78752z m172.032-36.864a23.88992 23.88992 0 0 1 24.35072-18.45248 82.47296 82.47296 0 0 1 57.50784 26.95168 82.45248 82.45248 0 0 1 21.6064 59.71968 23.8592 23.8592 0 1 1-47.69792-2.18112 34.99008 34.99008 0 0 0-9.18528-25.35424 34.9696 34.9696 0 0 0-24.41216-11.45856 23.8592 23.8592 0 0 1-22.1696-29.2352z m19.8144-78.22336a23.8592 23.8592 0 0 1 24.34048-18.432c80.31232 3.64544 142.66368 71.95648 138.98752 152.2688a23.8592 23.8592 0 1 1-47.67744-2.17088c2.4576-54.016-39.46496-99.9424-93.47072-102.41024a23.8592 23.8592 0 0 1-22.17984-29.24544z m-4.608-95.88736a23.86944 23.86944 0 0 1 24.34048-18.45248 248.68864 248.68864 0 0 1 173.49632 81.32608c45.08672 49.38752 68.22912 113.36704 65.18784 180.18304a23.86944 23.86944 0 0 1-47.68768-2.19136 201.27744 201.27744 0 0 0-52.74624-145.8176 201.35936 201.35936 0 0 0-140.43136-65.81248 23.87968 23.87968 0 0 1-22.15936-29.2352z" fill="#9A9FA4" p-id="3056"></path></svg>