<svg width="62" height="61" viewBox="0 0 62 61" fill="none" xmlns="http://www.w3.org/2000/svg">
<path d="M26.1674 3.49023C27.6413 -1.16339 34.2266 -1.1634 35.7006 3.49022L39.5073 15.5084C40.1655 17.5865 42.0941 18.9987 44.2739 18.9987L56.8582 18.9987C61.671 18.9987 63.705 25.1317 59.8462 28.0077L49.4477 35.7576C47.7398 37.0305 47.0259 39.2458 47.6691 41.2764L51.5888 53.6517C53.0551 58.2808 47.7277 62.0723 43.8343 59.1706L33.9219 51.7828C32.149 50.4615 29.7189 50.4615 27.946 51.7828L18.0336 59.1706C14.1403 62.0723 8.81284 58.2808 10.2791 53.6518L14.1989 41.2764C14.8421 39.2458 14.1281 37.0305 12.4202 35.7576L2.02176 28.0077C-1.83709 25.1317 0.196975 18.9987 5.00968 18.9987H17.5941C19.7739 18.9987 21.7025 17.5865 22.3607 15.5084L26.1674 3.49023Z" fill="#D9D9D9"/>
</svg>
