<?xml version="1.0" standalone="no"?><!DOCTYPE svg PUBLIC "-//W3C//DTD SVG 1.1//EN" "http://www.w3.org/Graphics/SVG/1.1/DTD/svg11.dtd"><svg t="1781805744231" class="icon" viewBox="0 0 1024 1024" version="1.1" xmlns="http://www.w3.org/2000/svg" p-id="52761" xmlns:xlink="http://www.w3.org/1999/xlink" width="48" height="48"><path d="M768 747.605333a21.333333 21.333333 0 0 1-33.834667 17.28L407.936 529.322667a21.333333 21.333333 0 0 1 0-34.602667l326.229333-235.605333a21.333333 21.333333 0 0 1 33.834667 17.28v471.253333zM341.333333 277.333333a21.333333 21.333333 0 0 0-21.333333-21.333333h-42.666667a21.333333 21.333333 0 0 0-21.333333 21.333333v469.333334a21.333333 21.333333 0 0 0 21.333333 21.333333h42.666667a21.333333 21.333333 0 0 0 21.333333-21.333333V277.333333z" p-id="52762"></path></svg>