<?xml version="1.0" standalone="no"?><!DOCTYPE svg PUBLIC "-//W3C//DTD SVG 1.1//EN" "http://www.w3.org/Graphics/SVG/1.1/DTD/svg11.dtd"><svg t="1782657954390" class="icon" viewBox="0 0 1024 1024" version="1.1" xmlns="http://www.w3.org/2000/svg" p-id="9027" xmlns:xlink="http://www.w3.org/1999/xlink" width="200" height="200"><path d="M675.41 472.15c22.49 0 40.73-18.24 40.73-40.73s-18.24-40.73-40.73-40.73h-92.44l58.8-101.66c11.26-19.47 4.61-44.37-14.88-55.64-19.41-11.28-44.37-4.61-55.64 14.88l-58.82 101.68-58.66-101.78c-11.24-19.47-36.17-26.19-55.62-14.93-19.49 11.24-26.17 36.13-14.93 55.62L441.9 390.7h-92.29c-22.49 0-40.73 18.24-40.73 40.73s18.24 40.73 40.73 40.73h122.18v88.93h-122.2c-22.49 0-40.73 18.24-40.73 40.73s18.24 40.73 40.73 40.73h122.18v113.59c0 22.49 18.24 40.73 40.73 40.73s40.73-18.24 40.73-40.73V642.53h122.18c22.49 0 40.73-18.24 40.73-40.73s-18.24-40.73-40.73-40.73H553.23v-88.93h122.18z" fill="#231815" p-id="9028"></path><path d="M512.5 64.32c-247.03 0-448 200.97-448 448s200.97 448 448 448 448-200.97 448-448-200.97-448-448-448z m0 814.54c-202.11 0-366.55-164.44-366.55-366.55S310.4 145.77 512.5 145.77s366.55 164.44 366.55 366.55S714.61 878.86 512.5 878.86z" fill="#231815" p-id="9029"></path></svg>