<?xml version="1.0" standalone="no"?><!DOCTYPE svg PUBLIC "-//W3C//DTD SVG 1.1//EN" "http://www.w3.org/Graphics/SVG/1.1/DTD/svg11.dtd"><svg t="1781805553676" class="icon" viewBox="0 0 1024 1024" version="1.1" xmlns="http://www.w3.org/2000/svg" p-id="42534" xmlns:xlink="http://www.w3.org/1999/xlink" width="48" height="48"><path d="M362.666667 240.213333V128h-85.333334v112.213333a170.666667 170.666667 0 0 0 0 330.24V896h85.333334V570.453333a170.666667 170.666667 0 0 0 0-330.24zM320 490.666667a85.333333 85.333333 0 1 1 85.333333-85.333334 85.333333 85.333333 0 0 1-85.333333 85.333334z m554.666667 149.333333a170.666667 170.666667 0 0 0-128-165.12V128h-85.333334v346.88a170.666667 170.666667 0 0 0 0 330.24V896h85.333334v-90.88A170.666667 170.666667 0 0 0 874.666667 640z m-170.666667 85.333333a85.333333 85.333333 0 1 1 85.333333-85.333333 85.333333 85.333333 0 0 1-85.333333 85.333333z" p-id="42535"></path></svg>