<?xml version="1.0" standalone="no"?><!DOCTYPE svg PUBLIC "-//W3C//DTD SVG 1.1//EN" "http://www.w3.org/Graphics/SVG/1.1/DTD/svg11.dtd"><svg t="1781806776101" class="icon" viewBox="0 0 1024 1024" version="1.1" xmlns="http://www.w3.org/2000/svg" p-id="9156" xmlns:xlink="http://www.w3.org/1999/xlink" width="48" height="48"><path d="M366.336 42.666667H810.666667a85.333333 85.333333 0 0 1 85.333333 85.333333v768a85.333333 85.333333 0 0 1-85.333333 85.333333H213.333333a85.333333 85.333333 0 0 1-85.333333-85.333333V281.002667L366.336 42.666667zM213.333333 316.330667V896h597.333334V128H401.664L213.333333 316.330667zM682.666667 170.666667h85.333333v256h-85.333333V170.666667z m-128 0h85.333333v256h-85.333333V170.666667z m-128 0h85.333333v256h-85.333333V170.666667zM298.666667 298.666667h85.333333v170.666666H298.666667V298.666667z" p-id="9157"></path></svg>