<?xml version="1.0" standalone="no"?><!DOCTYPE svg PUBLIC "-//W3C//DTD SVG 1.1//EN" "http://www.w3.org/Graphics/SVG/1.1/DTD/svg11.dtd"><svg t="1781805490309" class="icon" viewBox="0 0 1239 1024" version="1.1" xmlns="http://www.w3.org/2000/svg" p-id="40370" xmlns:xlink="http://www.w3.org/1999/xlink" width="58.078125" height="48"><path d="M619.725768 0Q493.843972 0 378.855792 48.416076q-111.356974 47.205674-197.295508 133.144208T48.416076 378.855792Q0 493.843972 0 619.725768q0 82.307329 26.628842 156.141844t76.86052 130.723405q50.231678 56.888889 114.988179 87.148936t137.985816 30.260047q73.229314 0 144.037825-32.680851T635.460993 894.486998l2.420804-2.420804q118.619385-146.458629 248.132387-146.458629 37.522459 0 81.096927 12.104019 25.41844 6.052009 72.624114 24.208038 35.101655 13.314421 52.047281 18.156028 25.41844 7.262411 45.995272 7.262411 65.361702 0 89.56974-72.624113 12.104019-39.943262 12.104019-114.98818 0-125.881797-48.416076-240.869976-47.205674-111.356974-133.144208-197.295508T860.595745 48.416076q-114.98818-48.416076-240.869977-48.416076z m518.05201 729.87234q-10.893617 0-30.260048-6.052009-13.314421-4.841608-41.153664-14.524823-52.047281-19.36643-82.307328-27.839243-50.836879-13.314421-98.042554-13.314421-83.51773 0-159.773049 42.969267T578.572104 841.229314q-52.047281 52.047281-108.93617 78.676123t-113.777778 26.628842q-55.678487 0-105.304965-23.602837T160.983452 854.543735q-39.943262-44.78487-61.730497-105.910165T77.465721 619.725768q0-146.458629 73.834515-273.550827 72.624113-122.250591 194.874705-194.874705 127.092199-73.834515 273.550827-73.834515t273.550828 73.834515q122.250591 72.624113 194.874704 194.874705 73.834515 127.092199 73.834516 273.550827 0 39.943262-3.631206 67.782506-6.052009 42.364066-20.576832 42.364066zM969.531915 508.368794z m-77.465721 0q0 32.680851 22.392435 55.073286t54.468085 22.392435q32.07565 0 55.073286-22.392435t22.997636-54.468085q0-32.07565-22.997636-55.073286t-55.073286-22.997636q-32.07565 0-54.468085 22.997636T892.066194 508.368794zM553.153664 262.65721z m-77.465721 0q0 32.680851 22.997636 55.073286t55.073286 22.392435q32.07565 0 54.468085-22.392435t22.392435-54.468085q0-32.07565-22.392435-55.073286t-54.468085-22.997636q-32.07565 0-55.073286 22.997636t-22.997636 54.468085z m338.91253 32.680851z m-77.465721 0q0 32.680851 22.392435 55.073287t54.468085 22.392435q32.07565 0 55.073286-22.392435t22.997636-54.468086q0-32.07565-22.997636-55.073286t-55.073286-22.997636q-32.07565 0-54.468085 22.997636T737.134752 295.338061zM352.22695 430.903073z m-77.465721 0q0 32.680851 22.997636 55.073286t55.073286 22.392435q32.07565 0 54.468085-22.392435t22.392435-54.468085q0-32.07565-22.392435-55.073286t-54.468085-22.997636q-32.07565 0-55.073286 22.997636t-22.997636 54.468085z m61.730497 298.969267z m-116.198582 0q0 48.416076 34.496454 82.307329t82.307329 33.891253q47.810875 0 81.702127-33.891253t33.891253-82.307329q0-48.416076-33.891253-82.307328t-81.702127-33.891253q-47.810875 0-82.307329 33.891253T220.293144 729.87234z" p-id="40371"></path></svg>